<svg id="vector" xmlns="http://www.w3.org/2000/svg" width="24" height="24" viewBox="0 0 512 512"><path fill="#010101" fill-opacity="0.966" d="M246.5,-0.5C252.5,-0.5 258.5,-0.5 264.5,-0.5C275.61,2.49 284.44,8.82 291,18.5C365.09,166.02 438.59,313.69 511.5,461.5C511.5,467.5 511.5,473.5 511.5,479.5C506.5,495.83 495.83,506.5 479.5,511.5C473.5,511.5 467.5,511.5 461.5,511.5C430,503.54 398.33,495.71 366.5,488C362.51,486.52 360.85,483.68 361.5,479.5C363.63,473.88 367.63,472.04 373.5,474C403.86,481.21 434.2,488.54 464.5,496C480.29,498.02 490.79,491.52 496,476.5C496.67,472.5 496.67,468.5 496,464.5C493.66,458.49 490.83,452.83 487.5,447.5C417.62,306.73 347.45,166.07 277,25.5C273.77,21.09 269.61,18.09 264.5,16.5C264.44,15.96 264.11,15.62 263.5,15.5C262.5,102.5 262.17,189.5 262.5,276.5C261.83,279.17 260.17,280.83 257.5,281.5C252.83,282.58 249.83,280.92 248.5,276.5C248.83,189.5 248.5,102.5 247.5,15.5C246.89,15.62 246.56,15.96 246.5,16.5C241.39,18.09 237.23,21.09 234,25.5C220.67,52.17 207.33,78.83 194,105.5C190.96,108.54 187.46,109.21 183.5,107.5C179.69,104.57 178.86,100.9 181,96.5C194,70.5 207,44.5 220,18.5C226.56,8.82 235.4,2.49 246.5,-0.5Z" stroke-opacity="0.966" id="path_0"/><path fill="#b9e5ee" d="M246.5,16.5C247.17,103.17 247.83,189.83 248.5,276.5C249.83,280.92 252.83,282.58 257.5,281.5C256.25,284.74 255.59,288.24 255.5,292C255.59,295.76 256.25,299.26 257.5,302.5C252.83,301.42 249.83,303.08 248.5,307.5C247.5,340.33 247.17,373.33 247.5,406.5C241.47,407.08 235.47,407.91 229.5,409C169.14,423.56 108.8,438.23 48.5,453C40.14,454.38 32.14,453.38 24.5,450C23.75,449.33 23.41,448.5 23.5,447.5C75.05,343.4 126.88,239.4 179,135.5C180.08,131.01 178.91,127.35 175.5,124.5C178.44,118.96 181.1,113.29 183.5,107.5C187.46,109.21 190.96,108.54 194,105.5C207.33,78.83 220.67,52.17 234,25.5C237.23,21.09 241.39,18.09 246.5,16.5Z" id="path_1"/><path fill="#5d7377" d="M246.5,16.5C246.56,15.96 246.89,15.62 247.5,15.5C248.5,102.5 248.83,189.5 248.5,276.5C247.83,189.83 247.17,103.17 246.5,16.5Z" id="path_2"/><path fill="#6e797b" d="M264.5,16.5C263.83,103.17 263.17,189.83 262.5,276.5C262.17,189.5 262.5,102.5 263.5,15.5C264.11,15.62 264.44,15.96 264.5,16.5Z" id="path_3"/><path fill="#dbf1f5" d="M264.5,16.5C269.61,18.09 273.77,21.09 277,25.5C347.45,166.07 417.62,306.73 487.5,447.5C487.59,448.5 487.25,449.33 486.5,450C478.47,453.27 470.14,454.27 461.5,453C402.92,438.36 344.26,424.02 285.5,410C278.24,408.29 270.91,407.12 263.5,406.5C263.83,373.33 263.5,340.33 262.5,307.5C261.83,304.83 260.17,303.17 257.5,302.5C256.25,299.26 255.59,295.76 255.5,292C255.59,288.24 256.25,284.74 257.5,281.5C260.17,280.83 261.83,279.17 262.5,276.5C263.17,189.83 263.83,103.17 264.5,16.5Z" id="path_4"/><path fill="#010102" fill-opacity="0.965" d="M175.5,124.5C178.91,127.35 180.08,131.01 179,135.5C126.88,239.4 75.05,343.4 23.5,447.5C20.17,452.83 17.34,458.49 15,464.5C13.35,483.34 21.85,494.01 40.5,496.5C104.3,481.98 167.97,466.81 231.5,451C236.79,449.97 242.12,449.31 247.5,449C248.5,401.9 248.83,354.74 248.5,307.5C249.83,303.08 252.83,301.42 257.5,302.5C260.17,303.17 261.83,304.83 262.5,307.5C262.33,354.5 262.5,401.5 263,448.5C289,453.05 314.66,459.05 340,466.5C342.02,468.77 342.86,471.44 342.5,474.5C341.36,478.13 338.86,480.13 335,480.5C314.84,475.67 294.67,470.83 274.5,466C264.21,464.53 253.87,464.2 243.5,465C178.57,479.9 113.9,495.4 49.5,511.5C43.5,511.5 37.5,511.5 31.5,511.5C15.17,506.5 4.5,495.83 -0.5,479.5C-0.5,473.5 -0.5,467.5 -0.5,461.5C54.07,350.36 109.24,239.35 165,128.5C167.59,124.95 171.09,123.62 175.5,124.5Z" stroke-opacity="0.965" id="path_5"/><path fill="#92d5e3" d="M248.5,307.5C248.83,354.74 248.5,401.9 247.5,449C242.12,449.31 236.79,449.97 231.5,451C167.97,466.81 104.3,481.98 40.5,496.5C21.85,494.01 13.35,483.34 15,464.5C17.34,458.49 20.17,452.83 23.5,447.5C23.41,448.5 23.75,449.33 24.5,450C32.14,453.38 40.14,454.38 48.5,453C108.8,438.23 169.14,423.56 229.5,409C235.47,407.91 241.47,407.08 247.5,406.5C247.17,373.33 247.5,340.33 248.5,307.5Z" id="path_6"/><path fill="#b8e3ec" d="M262.5,307.5C263.5,340.33 263.83,373.33 263.5,406.5C270.91,407.12 278.24,408.29 285.5,410C344.26,424.02 402.92,438.36 461.5,453C470.14,454.27 478.47,453.27 486.5,450C487.25,449.33 487.59,448.5 487.5,447.5C490.83,452.83 493.66,458.49 496,464.5C496.67,468.5 496.67,472.5 496,476.5C490.79,491.52 480.29,498.02 464.5,496C434.2,488.54 403.86,481.21 373.5,474C367.63,472.04 363.63,473.88 361.5,479.5C355.23,477.68 348.89,476.02 342.5,474.5C342.86,471.44 342.02,468.77 340,466.5C314.66,459.05 289,453.05 263,448.5C262.5,401.5 262.33,354.5 262.5,307.5Z" id="path_7"/></svg>